<?xml version="1.0" standalone="no"?>
<!DOCTYPE svg PUBLIC "-//W3C//DTD SVG 20010904//EN"
 "http://www.w3.org/TR/2001/REC-SVG-20010904/DTD/svg10.dtd">
<svg version="1.0" xmlns="http://www.w3.org/2000/svg"
 width="499.000000pt" height="500.000000pt" viewBox="0 0 499.000000 500.000000"
 preserveAspectRatio="xMidYMid meet">

<g transform="translate(0.000000,500.000000) scale(0.100000,-0.100000)"
fill="#000000" stroke="none">
<path d="M1850 4256 c-58 -15 -113 -49 -134 -82 -24 -36 -31 -111 -14 -160 14
-39 13 -42 -9 -70 -85 -104 -135 -313 -113 -474 14 -100 49 -204 95 -279 49
-82 62 -91 69 -49 3 18 10 62 16 98 18 110 42 210 50 210 4 0 14 -7 21 -16 11
-13 10 -27 -4 -81 -19 -72 -17 -83 18 -83 20 0 27 8 39 51 31 104 31 118 0
150 -15 16 -36 29 -47 29 -13 0 -17 5 -13 16 3 9 6 21 6 28 0 8 28 18 75 26
53 9 79 18 85 30 16 30 -11 43 -76 34 l-57 -7 7 29 c4 16 49 101 99 189 72
125 93 155 95 135 6 -50 54 -177 97 -260 24 -46 43 -86 41 -88 -3 -2 -14 2
-26 8 -18 10 -25 9 -37 -2 -23 -23 -5 -45 60 -76 44 -21 88 -55 152 -118 100
-99 178 -144 279 -163 90 -17 131 -14 198 15 156 65 266 28 323 -111 11 -24
17 -67 17 -118 0 -69 -5 -88 -32 -144 -18 -36 -50 -83 -72 -105 l-39 -39 12
-59 c26 -133 -8 -282 -72 -315 -40 -21 -54 -19 -93 16 -48 42 -77 122 -84 232
-10 169 -22 84 -22 -157 l0 -243 33 -6 c17 -3 104 -13 192 -23 88 -9 162 -19
164 -20 8 -7 -84 -116 -154 -183 -140 -132 -285 -220 -442 -267 -73 -22 -109
-27 -208 -27 -146 -1 -240 18 -350 72 -139 67 -218 159 -251 292 l-16 66 -47
-9 c-315 -58 -604 -343 -852 -838 -72 -144 -189 -427 -189 -458 0 -24 204
-223 320 -313 374 -291 787 -460 1260 -515 173 -20 450 -15 630 11 404 57 801
223 1140 476 121 90 347 304 425 402 l38 48 -28 72 c-44 112 -184 382 -256
492 -62 96 -192 259 -237 299 -12 11 -22 22 -22 26 0 4 26 23 58 43 152 94
255 231 314 417 20 65 23 94 22 220 -1 127 -4 156 -28 235 -60 200 -165 367
-335 536 -199 196 -440 316 -705 352 l-89 12 -14 69 c-30 147 -88 252 -196
353 -108 101 -247 153 -462 173 -154 14 -568 12 -625 -4z m-414 -2920 c3 -7
-9 -34 -26 -59 -83 -124 -130 -277 -130 -426 0 -186 57 -330 193 -493 59 -71
32 -112 -29 -46 -159 171 -241 407 -215 616 17 130 71 282 139 384 25 38 58
50 68 24z"/>
<path d="M2156 3474 c-7 -18 -2 -29 27 -61 20 -22 20 -24 2 -88 -19 -70 -14
-90 21 -83 13 2 26 23 41 68 29 88 28 94 -13 140 -38 42 -68 51 -78 24z"/>
<path d="M2002 3298 c-26 -43 -49 -114 -58 -175 -7 -56 10 -131 32 -140 29
-11 38 15 35 97 -2 72 0 86 29 149 18 39 30 77 27 86 -11 26 -44 17 -65 -17z"/>
<path d="M2891 3098 c-56 -61 -101 -120 -101 -130 0 -35 30 -32 69 6 37 36 38
36 112 34 73 -3 74 -3 74 22 0 22 -6 26 -48 35 l-48 10 36 35 c49 47 60 67 44
86 -6 8 -17 14 -25 14 -7 0 -58 -50 -113 -112z"/>
<path d="M2236 2941 c-11 -12 -40 -35 -67 -51 -36 -24 -57 -30 -88 -29 -48 3
-71 -13 -55 -39 14 -22 91 -28 136 -9 18 8 57 33 86 56 40 32 52 48 50 64 -4
29 -39 33 -62 8z"/>
<path d="M2682 2665 c-30 -25 -81 -60 -115 -79 -131 -73 -347 -125 -462 -111
-61 8 -59 11 -70 -97 l-7 -68 29 0 c44 0 179 37 279 75 157 61 285 149 359
247 38 50 54 80 43 77 -2 0 -27 -20 -56 -44z"/>
</g>
</svg>
