<?xml version="1.0" standalone="no"?>
<!DOCTYPE svg PUBLIC "-//W3C//DTD SVG 20010904//EN"
 "http://www.w3.org/TR/2001/REC-SVG-20010904/DTD/svg10.dtd">
<svg version="1.0" xmlns="http://www.w3.org/2000/svg"
 width="776.000000pt" height="782.000000pt" viewBox="0 0 776.000000 782.000000"
 preserveAspectRatio="xMidYMid meet">

<g transform="translate(0.000000,782.000000) scale(0.100000,-0.100000)"
fill="#000000" stroke="none">
<path d="M2177 7550 c-309 -39 -548 -152 -720 -341 -135 -148 -220 -342 -248
-568 -10 -81 -10 -101 2 -126 l14 -30 307 0 c261 0 310 2 322 15 9 9 22 51 30
95 19 109 49 169 121 240 93 93 197 133 325 122 203 -17 329 -150 318 -334 -8
-126 -31 -158 -274 -396 -224 -220 -293 -305 -343 -424 -48 -113 -66 -211 -66
-364 0 -197 -25 -182 302 -178 319 5 298 -5 313 146 19 199 62 266 365 568
178 177 243 248 279 307 104 168 137 347 101 551 -66 379 -317 625 -719 702
-97 19 -334 27 -429 15z"/>
<path d="M4762 7194 c-87 -43 -109 -87 -148 -286 l-16 -87 30 -73 c17 -40 38
-121 48 -180 10 -59 19 -106 21 -105 1 2 27 122 58 267 31 146 61 277 67 293
8 22 17 27 43 27 35 0 776 -145 1275 -249 297 -62 325 -73 314 -118 -2 -10
-47 -227 -98 -483 -52 -256 -111 -541 -130 -633 -20 -93 -36 -174 -36 -180 0
-11 137 -97 153 -97 4 0 7 8 7 18 0 10 18 102 40 203 118 534 232 1109 232
1164 0 34 -7 79 -17 103 -20 48 -91 116 -138 131 -78 25 -1551 311 -1599 311
-38 0 -69 -8 -106 -26z"/>
<path d="M3963 6966 c-82 -21 -159 -65 -216 -125 -106 -112 -143 -211 -135
-372 5 -105 32 -180 89 -252 17 -21 29 -39 28 -41 -2 -1 -155 -87 -338 -191
-216 -123 -350 -205 -377 -232 -152 -148 -42 -422 169 -423 27 0 85 9 129 21
45 11 85 16 89 12 5 -5 -19 -96 -52 -203 -222 -718 -241 -784 -236 -833 4 -51
26 -88 71 -121 25 -19 44 -21 214 -24 123 -2 201 1 227 8 88 26 145 95 194
234 60 169 139 246 253 246 117 0 201 -86 263 -269 41 -122 74 -175 126 -202
21 -10 41 -19 44 -19 3 0 5 219 5 488 0 546 -1 531 74 605 42 40 64 50 401
186 159 64 241 101 243 112 2 9 -7 42 -19 74 -40 108 -72 131 -451 340 -189
104 -344 189 -346 191 -2 1 15 26 37 55 118 155 116 395 -4 558 -50 68 -134
132 -214 162 -70 26 -196 34 -268 15z"/>
<path d="M5450 5477 c-304 -106 -695 -253 -723 -271 -17 -12 -40 -37 -51 -56
-20 -34 -21 -49 -21 -490 1 -583 -22 -520 260 -730 250 -186 437 -317 468
-329 67 -26 94 -17 519 172 470 207 487 218 506 317 6 30 16 241 23 468 13
459 11 480 -46 536 -37 36 -624 391 -681 411 -67 24 -120 18 -254 -28z m247
-133 c35 -27 37 -36 14 -65 -16 -21 -28 -24 -79 -24 -46 0 -67 5 -89 21 -36
27 -37 64 -3 82 35 18 124 10 157 -14z m-512 -198 c68 -44 -19 -109 -117 -87
-42 10 -78 40 -78 66 0 50 130 64 195 21z m408 -9 c42 -18 57 -38 50 -65 -6
-26 -38 -37 -105 -36 -61 1 -100 26 -96 62 5 44 88 65 151 39z m448 -18 c49
-16 72 -45 57 -72 -17 -33 -27 -37 -94 -37 -47 0 -67 5 -88 21 -72 56 21 122
125 88z m-493 -219 c46 -28 45 -66 -3 -86 -45 -18 -108 -18 -145 1 -39 20 -43
76 -7 93 38 18 118 14 155 -8z m-650 -93 c29 -30 52 -89 52 -131 0 -39 -29
-67 -61 -59 -28 8 -67 58 -79 104 -24 87 34 144 88 86z m1320 -103 c17 -12 22
-25 22 -59 0 -39 -6 -50 -43 -90 -47 -49 -76 -56 -116 -29 -20 14 -23 23 -18
60 10 97 94 161 155 118z m-1171 -246 c38 -42 54 -86 51 -141 -3 -48 -5 -52
-30 -55 -36 -4 -65 12 -88 51 -22 35 -27 115 -10 148 14 26 52 24 77 -3z m162
-343 c38 -19 65 -78 66 -144 0 -68 -17 -83 -68 -59 -44 21 -67 70 -67 142 0
42 4 57 18 65 22 13 18 13 51 -4z m599 -41 c44 -30 17 -144 -41 -176 -30 -16
-76 -12 -98 8 -36 32 -17 125 35 166 26 22 75 23 104 2z"/>
<path d="M2173 5001 c-175 -60 -281 -228 -271 -426 10 -195 157 -356 353 -387
221 -34 439 131 476 361 31 197 -95 398 -287 456 -68 21 -206 19 -271 -4z"/>
<path d="M1590 3865 c-15 -18 -12 -30 97 -380 157 -505 203 -643 219 -649 32
-12 201 -7 212 7 6 7 50 134 98 283 48 148 90 272 94 277 3 4 33 -75 65 -175
107 -334 123 -381 137 -389 7 -5 54 -9 104 -9 77 0 94 3 108 19 18 20 312 906
322 973 8 50 -11 58 -135 58 -77 0 -103 -4 -115 -16 -9 -8 -16 -17 -16 -20 0
-2 -36 -144 -80 -316 -44 -172 -80 -314 -81 -317 -2 -14 -56 156 -126 394 -42
143 -81 263 -87 267 -15 10 -178 10 -194 -1 -7 -4 -36 -93 -63 -197 -55 -209
-117 -421 -129 -444 -6 -11 -10 -7 -16 15 -57 238 -166 612 -180 622 -27 20
-218 18 -234 -2z"/>
<path d="M3202 3868 c-9 -9 -12 -138 -12 -520 l0 -508 23 -5 c12 -3 67 -5 122
-3 l100 3 3 198 2 197 195 0 195 0 0 -189 c0 -149 3 -191 14 -200 9 -8 51 -11
122 -9 l109 3 3 509 c1 367 -1 513 -9 522 -15 18 -209 20 -227 2 -9 -9 -12
-69 -12 -210 l0 -198 -195 0 -195 0 0 204 c0 177 -2 205 -16 210 -30 11 -209
7 -222 -6z"/>
<path d="M4598 3863 c-8 -10 -28 -54 -45 -98 -267 -688 -343 -890 -343 -905 0
-26 19 -30 136 -30 120 0 116 -3 156 113 l23 67 181 0 181 0 28 -77 c15 -43
32 -84 37 -90 12 -15 225 -18 248 -3 12 7 12 16 3 47 -31 107 -368 960 -385
976 -16 13 -39 17 -113 17 -75 0 -95 -3 -107 -17z m161 -477 c28 -81 48 -152
45 -157 -6 -11 -174 -12 -191 -1 -9 6 1 46 39 160 29 83 53 150 54 149 2 -1
25 -69 53 -151z"/>
<path d="M5622 3503 c-56 -29 -96 -43 -123 -43 l-39 0 2 -312 3 -313 111 -3
c86 -2 114 1 123 11 8 11 11 108 9 358 l-3 344 -83 -42z"/>
<path d="M1249 2657 c-139 -47 -214 -148 -214 -287 1 -93 21 -136 99 -207 53
-48 102 -74 251 -128 63 -23 95 -55 95 -95 0 -63 -45 -100 -122 -100 -47 0
-137 34 -186 68 -16 12 -37 22 -45 22 -17 0 -129 -145 -131 -169 -1 -21 80
-74 156 -101 96 -34 264 -39 356 -11 147 44 227 148 227 291 0 93 -21 149 -78
208 -51 53 -93 75 -222 118 -119 39 -161 75 -151 128 10 53 40 69 122 64 55
-4 84 -12 129 -36 32 -18 64 -32 71 -32 17 0 116 159 110 176 -8 22 -80 64
-152 89 -94 33 -221 34 -315 2z"/>
<path d="M3271 2664 c-200 -54 -359 -229 -390 -430 -27 -173 24 -330 149 -454
135 -135 318 -187 511 -146 183 39 348 194 395 370 16 60 18 212 3 276 -40
176 -199 337 -380 385 -69 19 -218 18 -288 -1z m276 -250 c124 -60 182 -210
139 -359 -33 -112 -148 -195 -271 -195 -115 0 -226 74 -264 176 -43 114 -18
244 61 321 98 94 217 114 335 57z"/>
<path d="M1914 2660 c-12 -4 -23 -17 -25 -27 -10 -44 -2 -974 7 -983 7 -7 54
-10 120 -8 l109 3 5 195 5 195 183 0 184 0 -2 -177 c0 -110 3 -185 10 -198 10
-18 21 -20 120 -20 98 0 110 2 120 20 7 13 9 182 8 507 l-3 488 -122 3 -123 3
-2 -198 -3 -198 -187 -3 -188 -2 0 194 c0 135 -4 197 -11 202 -18 11 -181 14
-205 4z"/>
<path d="M4689 2653 c-11 -13 -15 -88 -19 -352 -5 -327 -6 -337 -28 -372 -28
-46 -75 -69 -142 -69 -55 0 -81 10 -119 44 -44 40 -46 56 -51 411 l-5 340
-120 0 -120 0 0 -375 0 -375 26 -56 c36 -77 89 -133 160 -168 82 -41 156 -54
274 -49 82 4 111 10 163 33 78 35 151 112 184 193 22 55 23 68 26 422 3 338 2
365 -14 377 -12 8 -51 13 -110 13 -73 0 -94 -3 -105 -17z"/>
<path d="M5129 2662 c-21 -2 -28 -10 -33 -34 -8 -42 -6 -927 3 -958 l7 -25
309 -3 c283 -2 311 -1 323 15 12 17 17 168 6 197 -5 14 -33 16 -205 16 l-199
0 0 389 c0 259 -3 392 -10 396 -12 7 -158 12 -201 7z"/>
<path d="M5870 2658 c-20 -7 -20 -13 -18 -510 l3 -503 225 1 c243 1 304 10
406 59 111 54 207 170 246 298 17 57 20 86 16 175 -8 172 -59 274 -184 370
-78 59 -142 86 -241 103 -79 12 -423 18 -453 7z m460 -239 c55 -25 105 -71
133 -124 19 -34 22 -56 21 -140 0 -115 -19 -168 -75 -222 -54 -51 -95 -63
-214 -63 l-105 0 0 285 0 285 98 0 c76 0 107 -5 142 -21z"/>
<path d="M1770 1462 l-25 -8 -3 -501 -2 -501 22 -6 c13 -3 62 -6 110 -6 65 0
90 4 102 16 14 14 16 72 16 497 0 265 -4 488 -8 495 -10 15 -172 25 -212 14z"/>
<path d="M2535 1463 c-11 -3 -24 -8 -28 -13 -5 -4 -9 -229 -9 -500 -1 -411 1
-493 13 -501 16 -10 172 -12 207 -3 22 6 22 9 22 164 l0 158 31 6 c17 3 66 6
109 6 161 0 270 58 329 173 43 84 53 190 26 282 -22 78 -104 162 -188 194 -84
31 -428 54 -512 34z m397 -240 c40 -23 58 -56 58 -106 0 -86 -59 -127 -180
-127 l-70 0 0 131 0 132 80 -6 c52 -3 91 -12 112 -24z"/>
<path d="M3399 1463 c-10 -2 -20 -14 -23 -26 -8 -29 -7 -935 0 -965 l6 -22
318 0 318 0 6 23 c9 35 7 170 -4 187 -8 12 -44 16 -205 18 l-195 3 0 385 0
384 -26 10 c-25 10 -163 12 -195 3z"/>
<path d="M4538 1456 c-8 -7 -99 -233 -202 -501 -221 -571 -217 -520 -46 -510
57 4 107 8 111 11 4 2 19 40 34 84 l27 80 159 2 c87 1 167 2 176 2 13 1 26
-20 48 -76 16 -43 35 -82 41 -88 15 -15 232 -16 246 -2 15 15 -354 969 -384
995 -26 22 -188 25 -210 3z m160 -466 l51 -150 -105 0 c-80 0 -105 3 -101 13
2 6 24 74 48 149 24 76 47 138 50 138 3 0 29 -67 57 -150z"/>
<path d="M5015 1456 c-21 -15 -39 19 177 -347 l168 -287 0 -181 c0 -168 1
-181 19 -191 22 -11 190 -14 208 -2 7 5 12 67 15 192 l3 185 41 70 c233 400
304 527 304 544 0 10 -6 21 -13 24 -13 5 -248 0 -252 -5 -2 -2 -46 -90 -100
-197 -86 -172 -98 -191 -109 -175 -7 11 -52 95 -100 189 -48 93 -92 175 -98
182 -14 18 -239 17 -263 -1z"/>
</g>
</svg>
